<svg xmlns="http://www.w3.org/2000/svg" viewBox="0 0 200 200" width="200" height="200">
  <rect width="200" height="200" rx="32" fill="#3498DB"/>
  <!-- Bowl -->
  <path d="M35 100 Q35 160 100 160 Q165 160 165 100 Z" fill="#FEFEFE"/>
  <!-- Bowl rim -->
  <ellipse cx="100" cy="100" rx="68" ry="12" fill="#F5F5F5"/>
  <ellipse cx="100" cy="100" rx="65" ry="10" fill="#FEFEFE"/>
  <!-- Soup liquid -->
  <ellipse cx="100" cy="100" rx="58" ry="8" fill="#FF9800"/>
  <!-- Soup surface details -->
  <ellipse cx="85" cy="99" rx="12" ry="3" fill="#FFB74D" opacity="0.6"/>
  <ellipse cx="118" cy="100" rx="10" ry="2.5" fill="#FFB74D" opacity="0.6"/>
  <!-- Herb garnish -->
  <path d="M95 96 Q100 88 105 96" fill="#4CAF50"/>
  <path d="M90 98 Q95 92 100 98" fill="#66BB6A"/>
  <!-- Crouton -->
  <rect x="110" y="95" width="8" height="7" rx="1.5" fill="#FFCC80" transform="rotate(12 114 98)"/>
  <!-- Steam -->
  <path d="M80 80 Q78 70 82 60" fill="none" stroke="#FEFEFE" stroke-width="3" stroke-linecap="round" opacity="0.6"/>
  <path d="M100 76 Q98 66 102 56" fill="none" stroke="#FEFEFE" stroke-width="3" stroke-linecap="round" opacity="0.6"/>
  <path d="M120 80 Q118 70 122 60" fill="none" stroke="#FEFEFE" stroke-width="3" stroke-linecap="round" opacity="0.6"/>
  <!-- Spoon handle -->
  <path d="M140 90 Q155 85 160 70" fill="none" stroke="#BDBDBD" stroke-width="4" stroke-linecap="round"/>
  <!-- Saucer/plate under bowl -->
  <ellipse cx="100" cy="162" rx="72" ry="8" fill="#FEFEFE" opacity="0.3"/>
</svg>